<svg id="Layer_1" enable-background="new 0 0 509.703 509.703" height="512" viewBox="0 0 509.703 509.703" width="512" xmlns="http://www.w3.org/2000/svg"><g><path d="m263.044 8.193c-90.922 0-170.354 49.195-213.131 122.419l179.348 327.297 272.718-141.58c5.042-19.653 7.723-40.252 7.723-61.478.001-136.225-110.432-246.658-246.658-246.658z" fill="#94b938"/><path d="m443.837 422.614c.002 0 .005-.001.007-.001 27.476-29.598 47.776-65.945 58.126-106.286 3.497-13.629.131-28.239-9.416-38.575-.056-.061-.113-.122-.169-.183-21.281-22.844-37.552-54.521-42.815-86.79-1.701-10.428-7.207-19.576-15.046-25.975-13.763-11.235-24.093-26.031-29.506-42.953-5.783-18.077-14.031-35.847-24.318-46.914-1.231-1.325-2.795-2.152-4.442-2.476-4.904-.963-9.803-1.941-14.544-3.524-25.128-8.389-54.433-2.738-54.433-2.738.02.103-9.763 50.667 15.447 75.876 19.348 19.348 53.668 18.1 68.599 16.471-22.711 9.533-25.467 32.156-25.42 32.052-5.321 31.764-20.942 63.459-42.845 86.969-21.134 22.685-23.226 58.469-11.753 88.959 9.143 24.298-14.873 47.75-39.057 38.307-.411-.16-.821-.322-1.231-.484-15.982-6.34-23.292-24.824-16.066-40.425 23.261-50.219 9.242-111.988-35.508-127.02-17.891-6.01-37.087-3.001-54.265 6.827-.647.37-1.302.719-1.965 1.046-4.97 2.452-10.906-.603-11.883-6.058l-.036-.2c-.932-5.206 3.171-9.94 8.456-9.757 17.056.588 42.419-1.613 58.032-17.226 18.865-18.865 18.149-51.968 16.591-67.449-.51-5.065-4.499-9.061-9.565-9.571-15.37-1.546-48.13-2.263-67.061 16.209-.042.04-.085.073-.126.114-.09.089-.18.177-.269.267-3.608 3.608-6.499 7.736-8.805 12.162-5.52 10.592-20.06 12.006-27.891 2.987-.088-.101-.175-.2-.261-.298-3.036-3.457-4.587-7.987-4.189-12.571.042-.488.086-.976.131-1.464 3.54-38.158-47.114-54.407-66.43-21.31-22.645 38.801-34.897 84.163-33.39 132.104 1.461 46.65 16.034 92.444 43.41 132.096 44.701 64.746 119.242 106.698 203.111 106.698 69.24 0 134.253-28.757 180.795-78.896zm-319.524-181.256c-4.923-17.661-7.928-36.119-8.781-55.139 10.686 18.015 17.097 39.591 20.36 60.614-2.432-.777-6.706-3.071-11.579-5.475z" fill="#54a770"/><g><path d="m205.35 122.234s-50.658-9.771-75.876 15.447l.165 4.789c.946 27.542 14.799 53.034 37.394 68.811 8.433-2.624 16.471-6.771 22.871-13.171 25.217-25.218 15.446-75.876 15.446-75.876z" fill="#a0c83d"/><g><path d="m105.822 221.473h16.914c-9.323-47.466-29.537-69.77-30.645-70.962-3.098-3.332-8.291-3.518-11.636-.438-3.345 3.082-3.558 8.301-.492 11.661.078.085 7.833 8.691 15.474 26.466 3.534 8.224 7.406 19.311 10.385 33.273z" fill="#a55a3c"/></g><path d="m104.68 216.438c3.571 14.881 6.208 33.384 6.171 55.535-.008 4.563 3.685 8.268 8.248 8.276h.014c4.556 0 8.254-3.69 8.261-8.248.033-20.244-1.993-37.772-5.087-52.729-5.954.519-12-.423-17.607-2.834z" fill="#783c28"/><path d="m191.563 223.48c-17.891-6.01-37.086-3.001-54.264 6.826-11.29 6.459-25.081 6.459-36.371 0-17.178-9.828-36.374-12.836-54.264-6.826l.563 58.631c.521 54.187 41.709 99.314 95.624 104.767l51.366 5.195c16.319-12.308 29.996-31.033 37.703-53.975 16.848-50.156-1.22-101.472-40.357-114.618z" fill="#ff640a"/><path d="" fill="#ff640a"/><path d="m193.444 375.968c-.04-.014-.081-.027-.121-.041-7.36-2.49-15.273-2.49-22.633 0-.04.014-.081.027-.121.041-39.136 13.147-84.521-16.855-101.369-67.01-7.759-23.096-8.103-46.43-2.4-66.173 1.625-5.624-.004-11.686-4.23-15.738s-10.352-5.432-15.902-3.569c-.002.001-.003.001-.005.002-39.136 13.146-57.204 64.462-40.356 114.618s62.232 80.157 101.369 67.01c.04-.014.081-.027.121-.041 7.36-2.49 15.273-2.49 22.633 0 .04.014.081.027.121.041 21.897 7.356 45.749 1.201 65.464-14.431 2.44-1.934 3.625-5.048 3.09-8.116s-2.704-5.599-5.656-6.59c-.001-.002-.003-.002-.005-.003z" fill="#e04955"/><path d="m162.476 192.682c9.71-6.852 19.584-18.62 26.92-38.628 1.238-3.376-2.853-6.165-5.523-3.756l-31.962 28.84c-3.396 3.064-8.785.593-8.719-3.98.121-8.389 1.061-17.974 3.764-27.171 3.03-10.311-9.549-18.108-17.212-10.573-.09.088-.18.177-.269.267-25.218 25.218-15.447 75.876-15.447 75.876s28.208 5.438 53.004-2.282c5.363-1.67 4.252-9.548-1.364-9.63-.153-.002-.306-.005-.459-.007-4.781-.086-6.639-6.2-2.733-8.956z" fill="#94b938"/></g><g><path d="m355.273 68.221c-25.218-25.218-75.876-15.447-75.876-15.447s-5.496 28.495 2.394 53.382l88.929 37.941c0 .001 9.771-50.657-15.447-75.876z" fill="#a0c83d"/><path d="m371.86 107.931c-.003 0 .002 0-.001 0-.004.05-.009.1-.014.15-.635 6.25-9.339 7.354-11.711 1.537-4.34-10.647-16.164-28.908-46.986-33.474l28.458 30.796c3.966 4.291.56 11.247-5.257 10.696-14.444-1.368-30.428-5.694-41.505-16.771-.443-.443-.874-.893-1.296-1.351-5.075-5.516-14.003-.41-11.728 6.732 2.631 8.263 6.742 16.123 13.024 22.405 25.218 25.218 75.876 15.447 75.876 15.447s3.274-16.977 1.14-36.167z" fill="#94b938"/><g><path d="m365.606 128.128h16.952c-9.661-44.479-28.669-65.461-29.743-66.616-3.107-3.343-8.335-3.533-11.676-.426-3.342 3.107-3.533 8.335-.426 11.676.221.239 15.984 17.652 24.893 55.366z" fill="#a55a3c"/></g><path d="m372.582 125.062c-2.579 0-5.104.233-7.557.674 3.854 15.447 6.588 34.446 6.55 57.238-.008 4.563 3.685 8.268 8.248 8.276h.014c4.556 0 8.254-3.69 8.262-8.248.037-22.138-2.389-41.031-5.982-56.862-3.064-.705-6.255-1.078-9.535-1.078z" fill="#783c28"/><path d="m464.5 264.143c-21.281-22.844-37.552-54.521-42.815-86.79-3.286-20.147-20.771-35.524-41.846-35.524-5.981 0-11.673 1.239-16.832 3.475-10.455 4.53-17.145 14.927-17.145 26.321v206.583s60.288 32.508 68.54 31.272c26.558-3.981 52.109-26.99 63.255-60.171 10.955-32.619 4.882-65.803-13.157-85.166z" fill="#ffe046"/><path d="m415.348 388.055c-18.656 0-35.216-7.8-48.688-20.167-13.52-12.411-19.37-30.88-20.167-48.688-.768-17.152 8.225-36.745 20.167-48.688.366-.366.738-.728 1.114-1.086 13.149-12.5 16.368-32 8.866-48.518-3.801-8.369-6.054-18.108-6.563-29.459-.463-10.33 2.617-21.542 7.748-31.436 4.618-8.904-4.45-18.881-13.756-15.138-13.237 5.323-23.519 17.193-26.049 32.3-.911 5.438-1.909 10.867-3.449 16.162-7.641 26.266-20.758 50.801-39.396 70.807-18.038 19.363-24.112 52.547-13.155 85.165 14.609 43.491 53.963 69.506 87.899 58.106l.105-.035c6.366-2.145 13.259-2.145 19.625 0l.105.035c9.073 3.048 18.916 3.372 28.704 1.184 12.248-2.738 10.182-20.689-2.367-20.547-.246.001-.494.003-.743.003z" fill="#fcb54c"/></g></g></svg>